# xmcd
#
# Track frame offsets:
#	150
#	18875
#	49365
#	73657
#	100032
#	117147
#	136165
#	166692
#	194902
#	219027
#
# Disc length: 3159 seconds
#
# Revision: 1
# Processed by: cddbd v1.5.1PL0 Copyright (c) Steve Scherf et al.
# Submitted via: CDex 1.50Beta5
#
DISCID=830c550a
DTITLE=Cellophane - Summer garden
DYEAR=1900
DGENRE=
TTITLE0=サマーガーデン
TTITLE1=ルキアーノ!
TTITLE2=STARDIVE
TTITLE3=OVER
TTITLE4=自由の真下
TTITLE5=サマーガーデン(Live)
TTITLE6=ルキアーノ!(Live)
TTITLE7=STARDIVE(Live)
TTITLE8=OVER(Live)
TTITLE9=自由の真下(Live)
EXTD=
EXTT0=
EXTT1=
EXTT2=
EXTT3=
EXTT4=
EXTT5=
EXTT6=
EXTT7=
EXTT8=
EXTT9=
PLAYORDER=
